<?xml version="1.0" encoding="UTF-8" standalone="no"?>
<svg
   xmlns:dc="http://purl.org/dc/elements/1.1/"
   xmlns:cc="http://creativecommons.org/ns#"
   xmlns:rdf="http://www.w3.org/1999/02/22-rdf-syntax-ns#"
   xmlns:svg="http://www.w3.org/2000/svg"
   xmlns="http://www.w3.org/2000/svg"
   version="1.1"
   id="svg2"
   viewBox="0 0 439.87003 483.76836"
   height="136.53018mm"
   width="124.1411mm">
  <defs
     id="defs4" />
  <metadata
     id="metadata7">
    <rdf:RDF>
      <cc:Work
         rdf:about="">
        <dc:format>image/svg+xml</dc:format>
        <dc:type
           rdf:resource="http://purl.org/dc/dcmitype/StillImage" />
        <dc:title></dc:title>
      </cc:Work>
    </rdf:RDF>
  </metadata>
  <g
     transform="translate(-210.42917,-81.579258)"
     id="layer1">
    <path
       id="path4158"
       d="m 265.36739,564.19506 c -11.68168,-3.29093 -19.70584,-13.60324 -30.00861,-38.56578 -15.56907,-37.72225 -24.93125,-94.97547 -24.92961,-152.45379 0.002,-73.62423 8.46385,-118.81193 32.44749,-173.27732 10.55945,-23.97988 21.02633,-39.63893 38.05194,-56.92789 12.1781,-12.36647 20.485,-19.20585 34.57888,-28.47005 26.18295,-17.210607 53.0928,-25.789147 97.03398,-30.933277 19.6167,-2.2965 30.1338,-2.53718 46.3871,-1.06157 52.6062,4.77602 87.7908,20.070217 119.5,51.944897 26.7724,26.91199 45.5049,64.82011 58.5036,118.39084 10.7845,44.44527 14.0918,79.63844 13.2394,140.88352 -0.5629,40.44342 -0.7392,41.97104 -9.2467,80.1357 -7.4542,33.43917 -12.7012,47.88144 -22.5959,62.19474 -5.7707,8.34767 -14.1438,16.51319 -19.9926,19.49701 -8.0502,4.10693 -20.0012,0.96996 -22.8919,-6.00883 -0.6922,-1.67102 -1.5414,-3.01738 -1.8872,-2.99192 -0.3458,0.0255 -1.9787,1.82595 -3.6287,4.00106 -4.7001,6.19596 -13.7276,12.62127 -19.46,13.85064 -5.0217,1.07698 -14.04,0.48181 -14.04,-0.92658 0,-0.4162 2.8912,-6.31753 6.4247,-13.11407 15.0871,-29.01858 22.9919,-55.85425 25.0695,-85.10735 0.7695,-10.83451 -0.2434,-12.59191 -3.0388,-5.27227 -3.3675,8.81768 -11.2677,14.65208 -25.9554,19.16831 -8.5301,2.62289 -10.018,2.76687 -28.5,2.75775 -16.9976,-0.008 -20.5151,-0.29157 -27.4103,-2.20679 -11.6793,-3.24405 -17.9591,-6.4712 -23.6323,-12.14442 -9.4756,-9.47555 -13.7677,-22.25558 -14.7827,-44.01624 l -0.6747,-14.46367 -3.3978,-2.28633 c -4.3009,-2.89394 -7.2844,-2.89379 -10.6493,5.4e-4 -2.4976,2.14837 -2.7439,3.16285 -4.0668,16.75 -3.1924,32.78741 -10.07474,47.17021 -26.16174,54.6728 -14.33747,6.68665 -43.22747,8.76492 -60.72432,4.36835 -12.52297,-3.14675 -22.6241,-8.13306 -26.70821,-13.18422 -1.81048,-2.23918 -4.29007,-5.26882 -5.51019,-6.73252 l -2.2184,-2.66129 -0.0225,3.5 c -0.0364,5.65494 2.81014,28.63414 4.96675,40.09508 3.31954,17.64104 7.07934,26.47332 19.2213,45.15335 3.84255,5.91164 6.74632,11.37421 6.45282,12.13905 -0.29349,0.76484 -2.61433,2.18524 -5.15742,3.15646 -4.0578,1.54968 -5.71093,1.63199 -13.50487,0.67236 -10.05757,-1.23833 -12.41514,-2.24435 -20.28712,-8.65681 -3.07851,-2.50772 -5.81772,-4.55949 -6.08716,-4.55949 -0.26945,0 -0.98327,1.49494 -1.58629,3.32209 -0.60301,1.82715 -2.55465,4.7355 -4.33697,6.46299 -2.59802,2.5181 -4.3293,3.2449 -8.73116,3.66541 -3.13169,0.29916 -7.4502,-0.0276 -10.05179,-0.76047 z m 115.55948,-99.27598 c 21.61085,-3.79514 26.16821,-12.77965 27.21749,-53.65731 0.59733,-23.27056 0.15963,-25.63892 -5.20915,-28.18657 -2.84421,-1.34966 -9.22427,-1.57016 -45.43249,-1.57016 l -42.12362,0 -1.08865,2.75 c -1.59679,4.03363 -0.40361,50.28504 1.45425,56.37127 4.06184,13.30629 17.42411,23.02572 35.55388,25.86114 6.59729,1.03179 18.37094,0.40856 29.62829,-1.56837 z m 153.50169,-3.25574 c 7.7441,-2.98175 12.4171,-7.21739 15.9351,-14.4439 4.2993,-8.83136 5.4778,-18.01323 5.5243,-43.04186 0.038,-20.67916 -0.065,-21.9075 -1.9594,-23.34873 -1.746,-1.3281 -6.8888,-1.43695 -40.5,-0.85722 -21.175,0.36523 -40.208,1.10753 -42.2956,1.64956 -6.6899,1.737 -7.351,3.98114 -8.1571,27.69229 -0.9079,26.70249 0.5513,33.34166 9.5831,43.60237 7.8318,8.89731 18.5423,11.68495 42.8696,11.15775 10.858,-0.2353 14.5765,-0.70702 19,-2.41026 z m -84.9212,-86.91558 c 2.5674,-6.20913 7.344,-10.74092 12.8972,-12.23626 4.9124,-1.32276 47.4376,-2.9467 78.524,-2.99865 12.65,-0.0211 23.6521,-0.45097 24.4491,-0.95519 1.261,-0.79776 1.2225,-2.89435 -0.2967,-16.15336 -1.9279,-16.82529 -3.416,-24.89926 -4.5892,-24.89926 -0.424,0 -5.18,2.06033 -10.5687,4.5785 -5.3888,2.51818 -14.567,6.1847 -20.3961,8.14782 -8.8392,2.97689 -12.0922,3.58589 -19.5984,3.66913 -7.1401,0.0792 -9.8238,-0.31299 -12.9868,-1.89782 -5.3654,-2.68844 -8.5132,-7.58848 -8.5132,-13.2525 0,-3.1665 -0.3623,-4.31459 -1.25,-3.96058 -0.6875,0.27419 -8.45,3.51279 -17.25,7.19689 -19.5127,8.16895 -28.2128,10.51856 -38.948,10.51856 -6.4443,0 -9.0499,-0.46612 -12.5773,-2.25 -6.8023,-3.44007 -7.14125,-6.11869 -2.50457,-19.79342 2.06387,-6.08699 3.50417,-11.31568 3.20057,-11.6193 -0.3037,-0.30363 -5.41627,3.34711 -11.36138,8.11275 -25.80778,20.68769 -39.37095,27.91333 -54.80928,29.19908 -8.784,0.73155 -13.81444,-0.60237 -20.38744,-5.40614 -5.34684,-3.90765 -9.80542,-10.99502 -8.71101,-13.84702 0.37162,-0.96841 0.13756,-1.40899 -0.61521,-1.15806 -3.61954,1.20651 -16.18995,32.53574 -16.95708,42.26211 l -0.31548,4 44.49311,-0.34103 c 62.86327,-0.48182 67.12127,0.44032 70.10647,15.18278 1.1772,5.81309 1.1982,5.8389 4.2848,5.25867 8.8312,-1.66009 14.2288,-1.76915 17.6018,-0.35566 3.1435,1.31726 3.5716,1.30309 4.2025,-0.13904 0.3863,-0.88314 1.6806,-3.9715 2.8763,-6.863 z M 321.2286,295.30504 c 4.15361,-4.15361 -1.85573,-19.44455 -11.54415,-29.37446 -13.1246,-13.45173 -23.25585,-16.2725 -23.25585,-6.47494 0,4.13698 8.71953,20.83459 13.6536,26.14618 8.49229,9.14207 17.55092,13.2987 21.1464,9.70322 z"
       style="fill:#000000;fill-opacity:1" />
  </g>
</svg>
